<svg width="512" height="512" viewBox="0 0 512 512" fill="none" xmlns="http://www.w3.org/2000/svg">
<rect width="512" height="512" rx="20" fill="#27548A"/>
<path d="M299.401 189.432C299.401 215.506 278.261 236.643 252.183 236.643C226.105 236.643 204.965 215.506 204.965 189.432C204.965 163.359 226.105 142.222 252.183 142.222C278.261 142.222 299.401 163.359 299.401 189.432Z" fill="url(#paint0_radial_196_75)"/>
<path d="M126.634 194.122C124.981 194.122 123.342 194.122 121.715 194.254C121.168 199.069 120.892 203.911 120.889 208.758C120.889 280.884 179.609 339.399 252.049 339.399C253.701 339.399 255.328 339.399 256.967 339.281H258.606C328.003 335.871 383.208 278.76 383.208 208.797C383.204 203.951 382.932 199.109 382.395 194.293C312.999 197.703 257.793 254.814 257.793 324.777C257.793 252.623 199.073 194.122 126.634 194.122Z" fill="url(#paint1_linear_196_75)"/>
<path d="M258.737 341.872H256.783C256.024 341.872 255.248 341.898 254.466 341.924C253.665 341.951 252.856 341.977 252.048 341.977C221.239 341.985 191.369 331.371 167.477 311.921C143.584 292.474 132.85 286.732 126.609 256.567C127.921 333.572 180.435 374.224 252.048 374.224C323.609 374.224 376.086 333.532 377.515 256.567C371.571 285.637 361.798 290.65 339.256 309.948C316.712 329.245 288.381 340.478 258.737 341.872Z" fill="url(#paint2_linear_196_75)"/>
<defs>
<radialGradient id="paint0_radial_196_75" cx="0" cy="0" r="1" gradientUnits="userSpaceOnUse" gradientTransform="translate(252.183 189.432) rotate(90) scale(47.2102 47.2175)">
<stop offset="1" stop-color="white"/>
</radialGradient>
<linearGradient id="paint1_linear_196_75" x1="252.049" y1="211.726" x2="252.049" y2="339.523" gradientUnits="userSpaceOnUse">
<stop offset="1" stop-color="#F4F9FF"/>
</linearGradient>
<linearGradient id="paint2_linear_196_75" x1="252.048" y1="240.312" x2="245.322" y2="379.88" gradientUnits="userSpaceOnUse">
<stop stop-color="white"/>
</linearGradient>
</defs>
</svg>
